<mxfile modified="2024-02-29T17:03:45.404Z" host="app.diagrams.net" agent="Mozilla/5.0 (Windows NT 10.0; Win64; x64) AppleWebKit/537.36 (KHTML, like Gecko) Chrome/122.0.0.0 Safari/537.36" etag="i6EgRe-gMCP-K9CQmVNQ" version="23.1.7" type="github">
  <diagram id="Ht1M8jgEwFfnCIfOTk4-" name="Page-1">
    <mxGraphModel dx="1969" dy="2579" grid="1" gridSize="10" guides="1" tooltips="1" connect="1" arrows="1" fold="1" page="1" pageScale="1" pageWidth="1169" pageHeight="827" math="0" shadow="0">
      <root>
        <mxCell id="0" />
        <mxCell id="1" parent="0" />
        <mxCell id="NtKVwXDE8uXWN5UhaUdf-4" value="Region" style="points=[[0,0],[0.25,0],[0.5,0],[0.75,0],[1,0],[1,0.25],[1,0.5],[1,0.75],[1,1],[0.75,1],[0.5,1],[0.25,1],[0,1],[0,0.75],[0,0.5],[0,0.25]];outlineConnect=0;gradientColor=none;html=1;whiteSpace=wrap;fontSize=12;fontStyle=0;container=1;pointerEvents=0;collapsible=0;recursiveResize=0;shape=mxgraph.aws4.group;grIcon=mxgraph.aws4.group_region;strokeColor=#00A4A6;fillColor=none;verticalAlign=top;align=left;spacingLeft=30;fontColor=#147EBA;dashed=1;" parent="1" vertex="1">
          <mxGeometry x="170" y="-370" width="960" height="870" as="geometry" />
        </mxCell>
        <mxCell id="NtKVwXDE8uXWN5UhaUdf-1" value="VPC" style="points=[[0,0],[0.25,0],[0.5,0],[0.75,0],[1,0],[1,0.25],[1,0.5],[1,0.75],[1,1],[0.75,1],[0.5,1],[0.25,1],[0,1],[0,0.75],[0,0.5],[0,0.25]];outlineConnect=0;gradientColor=none;html=1;whiteSpace=wrap;fontSize=12;fontStyle=0;container=1;pointerEvents=0;collapsible=0;recursiveResize=0;shape=mxgraph.aws4.group;grIcon=mxgraph.aws4.group_vpc2;strokeColor=#8C4FFF;fillColor=none;verticalAlign=top;align=left;spacingLeft=30;fontColor=#AAB7B8;dashed=0;" parent="NtKVwXDE8uXWN5UhaUdf-4" vertex="1">
          <mxGeometry x="40" y="40" width="880" height="810" as="geometry" />
        </mxCell>
        <mxCell id="vOcuaTy3kgA0Dy2BZf0H-7" value="" style="sketch=0;outlineConnect=0;fontColor=#232F3E;gradientColor=none;fillColor=#8C4FFF;strokeColor=none;dashed=0;verticalLabelPosition=bottom;verticalAlign=top;align=center;html=1;fontSize=12;fontStyle=0;aspect=fixed;pointerEvents=1;shape=mxgraph.aws4.internet_gateway;" vertex="1" parent="NtKVwXDE8uXWN5UhaUdf-1">
          <mxGeometry x="391" y="-40" width="78" height="78" as="geometry" />
        </mxCell>
        <mxCell id="vOcuaTy3kgA0Dy2BZf0H-13" value="" style="sketch=0;outlineConnect=0;fontColor=#232F3E;gradientColor=none;fillColor=#8C4FFF;strokeColor=none;dashed=0;verticalLabelPosition=bottom;verticalAlign=top;align=center;html=1;fontSize=12;fontStyle=0;aspect=fixed;pointerEvents=1;shape=mxgraph.aws4.nat_gateway;" vertex="1" parent="NtKVwXDE8uXWN5UhaUdf-1">
          <mxGeometry x="391" y="290" width="78" height="78" as="geometry" />
        </mxCell>
        <mxCell id="NtKVwXDE8uXWN5UhaUdf-66" value="Route table" style="sketch=0;outlineConnect=0;fontColor=#232F3E;gradientColor=none;strokeColor=#232F3E;fillColor=#ffffff;dashed=0;verticalLabelPosition=bottom;verticalAlign=top;align=center;html=1;fontSize=12;fontStyle=0;aspect=fixed;shape=mxgraph.aws4.resourceIcon;resIcon=mxgraph.aws4.route_table;" parent="NtKVwXDE8uXWN5UhaUdf-1" vertex="1">
          <mxGeometry x="30" y="650" width="60" height="60" as="geometry" />
        </mxCell>
        <mxCell id="NtKVwXDE8uXWN5UhaUdf-65" value="Route table" style="sketch=0;outlineConnect=0;fontColor=#232F3E;gradientColor=none;strokeColor=#232F3E;fillColor=#ffffff;dashed=0;verticalLabelPosition=bottom;verticalAlign=top;align=center;html=1;fontSize=12;fontStyle=0;aspect=fixed;shape=mxgraph.aws4.resourceIcon;resIcon=mxgraph.aws4.route_table;" parent="NtKVwXDE8uXWN5UhaUdf-1" vertex="1">
          <mxGeometry x="30" y="450" width="60" height="60" as="geometry" />
        </mxCell>
        <mxCell id="NtKVwXDE8uXWN5UhaUdf-64" value="Route table" style="sketch=0;outlineConnect=0;fontColor=#232F3E;gradientColor=none;strokeColor=#232F3E;fillColor=#ffffff;dashed=0;verticalLabelPosition=bottom;verticalAlign=top;align=center;html=1;fontSize=12;fontStyle=0;aspect=fixed;shape=mxgraph.aws4.resourceIcon;resIcon=mxgraph.aws4.route_table;" parent="NtKVwXDE8uXWN5UhaUdf-1" vertex="1">
          <mxGeometry x="30" y="140" width="60" height="60" as="geometry" />
        </mxCell>
        <mxCell id="vOcuaTy3kgA0Dy2BZf0H-23" value="Availability zone" style="sketch=0;outlineConnect=0;gradientColor=none;html=1;whiteSpace=wrap;fontSize=12;fontStyle=0;shape=mxgraph.aws4.group;grIcon=mxgraph.aws4.group_availability_zone;strokeColor=#545B64;fillColor=none;verticalAlign=top;align=left;spacingLeft=30;fontColor=#545B64;dashed=1;" vertex="1" parent="NtKVwXDE8uXWN5UhaUdf-1">
          <mxGeometry x="125" y="38" width="195" height="752" as="geometry" />
        </mxCell>
        <mxCell id="vOcuaTy3kgA0Dy2BZf0H-24" value="Availability zone" style="sketch=0;outlineConnect=0;gradientColor=none;html=1;whiteSpace=wrap;fontSize=12;fontStyle=0;shape=mxgraph.aws4.group;grIcon=mxgraph.aws4.group_availability_zone;strokeColor=#545B64;fillColor=none;verticalAlign=top;align=left;spacingLeft=30;fontColor=#545B64;dashed=1;" vertex="1" parent="NtKVwXDE8uXWN5UhaUdf-1">
          <mxGeometry x="330" y="38" width="190" height="752" as="geometry" />
        </mxCell>
        <mxCell id="vOcuaTy3kgA0Dy2BZf0H-25" value="Availability zone" style="sketch=0;outlineConnect=0;gradientColor=none;html=1;whiteSpace=wrap;fontSize=12;fontStyle=0;shape=mxgraph.aws4.group;grIcon=mxgraph.aws4.group_availability_zone;strokeColor=#545B64;fillColor=none;verticalAlign=top;align=left;spacingLeft=30;fontColor=#545B64;dashed=1;" vertex="1" parent="NtKVwXDE8uXWN5UhaUdf-1">
          <mxGeometry x="540" y="38" width="190" height="752" as="geometry" />
        </mxCell>
        <mxCell id="NtKVwXDE8uXWN5UhaUdf-76" value="Private subnet" style="points=[[0,0],[0.25,0],[0.5,0],[0.75,0],[1,0],[1,0.25],[1,0.5],[1,0.75],[1,1],[0.75,1],[0.5,1],[0.25,1],[0,1],[0,0.75],[0,0.5],[0,0.25]];outlineConnect=0;gradientColor=none;html=1;whiteSpace=wrap;fontSize=12;fontStyle=0;container=1;pointerEvents=0;collapsible=0;recursiveResize=0;shape=mxgraph.aws4.group;grIcon=mxgraph.aws4.group_security_group;grStroke=0;strokeColor=#00A4A6;fillColor=#E6F6F7;verticalAlign=top;align=left;spacingLeft=30;fontColor=#147EBA;dashed=0;" parent="NtKVwXDE8uXWN5UhaUdf-1" vertex="1">
          <mxGeometry x="560" y="600" width="160" height="160" as="geometry" />
        </mxCell>
        <mxCell id="vOcuaTy3kgA0Dy2BZf0H-20" style="edgeStyle=orthogonalEdgeStyle;rounded=0;orthogonalLoop=1;jettySize=auto;html=1;" edge="1" parent="NtKVwXDE8uXWN5UhaUdf-1" source="NtKVwXDE8uXWN5UhaUdf-76" target="vOcuaTy3kgA0Dy2BZf0H-13">
          <mxGeometry relative="1" as="geometry">
            <Array as="points">
              <mxPoint x="760" y="680" />
              <mxPoint x="760" y="360" />
            </Array>
          </mxGeometry>
        </mxCell>
        <mxCell id="NtKVwXDE8uXWN5UhaUdf-13" value="" style="sketch=0;outlineConnect=0;fontColor=#232F3E;gradientColor=none;fillColor=#8C4FFF;strokeColor=none;dashed=0;verticalLabelPosition=bottom;verticalAlign=top;align=center;html=1;fontSize=12;fontStyle=0;aspect=fixed;pointerEvents=1;shape=mxgraph.aws4.nat_gateway;" parent="1" vertex="1">
          <mxGeometry x="2461" y="-330" width="78" height="78" as="geometry" />
        </mxCell>
        <mxCell id="vOcuaTy3kgA0Dy2BZf0H-12" style="edgeStyle=orthogonalEdgeStyle;rounded=0;orthogonalLoop=1;jettySize=auto;html=1;" edge="1" parent="1" source="NtKVwXDE8uXWN5UhaUdf-15" target="vOcuaTy3kgA0Dy2BZf0H-7">
          <mxGeometry relative="1" as="geometry">
            <Array as="points">
              <mxPoint x="640" y="-550" />
              <mxPoint x="640" y="-550" />
            </Array>
          </mxGeometry>
        </mxCell>
        <mxCell id="NtKVwXDE8uXWN5UhaUdf-15" value="Application Load Balancer" style="sketch=0;outlineConnect=0;fontColor=#232F3E;gradientColor=none;strokeColor=#ffffff;fillColor=#232F3E;dashed=0;verticalLabelPosition=middle;verticalAlign=bottom;align=center;html=1;whiteSpace=wrap;fontSize=10;fontStyle=1;spacing=3;shape=mxgraph.aws4.productIcon;prIcon=mxgraph.aws4.application_load_balancer;" parent="1" vertex="1">
          <mxGeometry x="596" y="-578" width="80" height="110" as="geometry" />
        </mxCell>
        <mxCell id="NtKVwXDE8uXWN5UhaUdf-82" style="edgeStyle=orthogonalEdgeStyle;rounded=0;orthogonalLoop=1;jettySize=auto;html=1;entryX=0.5;entryY=0;entryDx=0;entryDy=0;" parent="1" source="NtKVwXDE8uXWN5UhaUdf-16" target="NtKVwXDE8uXWN5UhaUdf-28" edge="1">
          <mxGeometry relative="1" as="geometry" />
        </mxCell>
        <mxCell id="NtKVwXDE8uXWN5UhaUdf-83" style="edgeStyle=orthogonalEdgeStyle;rounded=0;orthogonalLoop=1;jettySize=auto;html=1;entryX=0.5;entryY=0;entryDx=0;entryDy=0;" parent="1" source="NtKVwXDE8uXWN5UhaUdf-16" target="NtKVwXDE8uXWN5UhaUdf-29" edge="1">
          <mxGeometry relative="1" as="geometry" />
        </mxCell>
        <mxCell id="NtKVwXDE8uXWN5UhaUdf-16" value="" style="image;aspect=fixed;perimeter=ellipsePerimeter;html=1;align=center;shadow=0;dashed=0;spacingTop=3;image=img/lib/active_directory/internet_globe.svg;" parent="1" vertex="1">
          <mxGeometry x="590" y="-940" width="90" height="90" as="geometry" />
        </mxCell>
        <mxCell id="NtKVwXDE8uXWN5UhaUdf-89" style="edgeStyle=orthogonalEdgeStyle;rounded=0;orthogonalLoop=1;jettySize=auto;html=1;" parent="1" source="NtKVwXDE8uXWN5UhaUdf-28" target="NtKVwXDE8uXWN5UhaUdf-49" edge="1">
          <mxGeometry relative="1" as="geometry">
            <Array as="points">
              <mxPoint x="685" y="-758" />
              <mxPoint x="685" y="-758" />
            </Array>
          </mxGeometry>
        </mxCell>
        <mxCell id="NtKVwXDE8uXWN5UhaUdf-28" value="port80" style="fontStyle=0;labelPosition=right;verticalLabelPosition=middle;align=left;verticalAlign=middle;spacingLeft=2;" parent="1" vertex="1">
          <mxGeometry x="690" y="-765" width="30" height="30" as="geometry" />
        </mxCell>
        <mxCell id="NtKVwXDE8uXWN5UhaUdf-91" style="edgeStyle=orthogonalEdgeStyle;rounded=0;orthogonalLoop=1;jettySize=auto;html=1;" parent="1" source="NtKVwXDE8uXWN5UhaUdf-29" target="NtKVwXDE8uXWN5UhaUdf-46" edge="1">
          <mxGeometry relative="1" as="geometry" />
        </mxCell>
        <mxCell id="NtKVwXDE8uXWN5UhaUdf-29" value="port443" style="fontStyle=0;labelPosition=right;verticalLabelPosition=middle;align=left;verticalAlign=middle;spacingLeft=2;" parent="1" vertex="1">
          <mxGeometry x="541" y="-765" width="30" height="30" as="geometry" />
        </mxCell>
        <mxCell id="NtKVwXDE8uXWN5UhaUdf-43" value="" style="sketch=0;aspect=fixed;pointerEvents=1;shadow=0;dashed=0;html=1;strokeColor=none;labelPosition=center;verticalLabelPosition=bottom;verticalAlign=top;align=center;shape=mxgraph.mscae.enterprise.not_allowed;fillColor=#EA1C24;" parent="1" vertex="1">
          <mxGeometry x="670" y="-658" width="20" height="20" as="geometry" />
        </mxCell>
        <mxCell id="NtKVwXDE8uXWN5UhaUdf-92" style="edgeStyle=orthogonalEdgeStyle;rounded=0;orthogonalLoop=1;jettySize=auto;html=1;" parent="1" source="NtKVwXDE8uXWN5UhaUdf-46" target="NtKVwXDE8uXWN5UhaUdf-15" edge="1">
          <mxGeometry relative="1" as="geometry">
            <Array as="points">
              <mxPoint x="584" y="-608" />
              <mxPoint x="615" y="-608" />
            </Array>
          </mxGeometry>
        </mxCell>
        <mxCell id="NtKVwXDE8uXWN5UhaUdf-46" value="" style="sketch=0;html=1;aspect=fixed;strokeColor=none;shadow=0;align=center;fillColor=#2D9C5E;verticalAlign=top;labelPosition=center;verticalLabelPosition=bottom;shape=mxgraph.gcp2.check" parent="1" vertex="1">
          <mxGeometry x="571" y="-658" width="25" height="20" as="geometry" />
        </mxCell>
        <mxCell id="NtKVwXDE8uXWN5UhaUdf-49" value="" style="sketch=0;html=1;aspect=fixed;strokeColor=none;shadow=0;align=center;fillColor=#2D9C5E;verticalAlign=top;labelPosition=center;verticalLabelPosition=bottom;shape=mxgraph.gcp2.check" parent="1" vertex="1">
          <mxGeometry x="623.5" y="-765" width="25" height="20" as="geometry" />
        </mxCell>
        <mxCell id="vOcuaTy3kgA0Dy2BZf0H-9" style="edgeStyle=orthogonalEdgeStyle;rounded=0;orthogonalLoop=1;jettySize=auto;html=1;" edge="1" parent="1" source="NtKVwXDE8uXWN5UhaUdf-67" target="vOcuaTy3kgA0Dy2BZf0H-7">
          <mxGeometry relative="1" as="geometry">
            <Array as="points">
              <mxPoint x="440" y="-320" />
            </Array>
          </mxGeometry>
        </mxCell>
        <mxCell id="NtKVwXDE8uXWN5UhaUdf-67" value="Public subnet" style="points=[[0,0],[0.25,0],[0.5,0],[0.75,0],[1,0],[1,0.25],[1,0.5],[1,0.75],[1,1],[0.75,1],[0.5,1],[0.25,1],[0,1],[0,0.75],[0,0.5],[0,0.25]];outlineConnect=0;gradientColor=none;html=1;whiteSpace=wrap;fontSize=12;fontStyle=0;container=1;pointerEvents=0;collapsible=0;recursiveResize=0;shape=mxgraph.aws4.group;grIcon=mxgraph.aws4.group_security_group;grStroke=0;strokeColor=#7AA116;fillColor=#F2F6E8;verticalAlign=top;align=left;spacingLeft=30;fontColor=#248814;dashed=0;" parent="1" vertex="1">
          <mxGeometry x="360" y="-240" width="160" height="160" as="geometry" />
        </mxCell>
        <mxCell id="vOcuaTy3kgA0Dy2BZf0H-2" value="" style="sketch=0;outlineConnect=0;fontColor=#232F3E;gradientColor=none;fillColor=#ED7100;strokeColor=none;dashed=0;verticalLabelPosition=bottom;verticalAlign=top;align=center;html=1;fontSize=12;fontStyle=0;aspect=fixed;pointerEvents=1;shape=mxgraph.aws4.t2_instance;" vertex="1" parent="NtKVwXDE8uXWN5UhaUdf-67">
          <mxGeometry x="56.00000000000023" y="56" width="48" height="48" as="geometry" />
        </mxCell>
        <mxCell id="vOcuaTy3kgA0Dy2BZf0H-11" style="edgeStyle=orthogonalEdgeStyle;rounded=0;orthogonalLoop=1;jettySize=auto;html=1;" edge="1" parent="1" source="NtKVwXDE8uXWN5UhaUdf-69" target="vOcuaTy3kgA0Dy2BZf0H-7">
          <mxGeometry relative="1" as="geometry" />
        </mxCell>
        <mxCell id="NtKVwXDE8uXWN5UhaUdf-69" value="Public subnet" style="points=[[0,0],[0.25,0],[0.5,0],[0.75,0],[1,0],[1,0.25],[1,0.5],[1,0.75],[1,1],[0.75,1],[0.5,1],[0.25,1],[0,1],[0,0.75],[0,0.5],[0,0.25]];outlineConnect=0;gradientColor=none;html=1;whiteSpace=wrap;fontSize=12;fontStyle=0;container=1;pointerEvents=0;collapsible=0;recursiveResize=0;shape=mxgraph.aws4.group;grIcon=mxgraph.aws4.group_security_group;grStroke=0;strokeColor=#7AA116;fillColor=#F2F6E8;verticalAlign=top;align=left;spacingLeft=30;fontColor=#248814;dashed=0;" parent="1" vertex="1">
          <mxGeometry x="560" y="-240" width="160" height="160" as="geometry" />
        </mxCell>
        <mxCell id="vOcuaTy3kgA0Dy2BZf0H-4" value="" style="sketch=0;outlineConnect=0;fontColor=#232F3E;gradientColor=none;fillColor=#ED7100;strokeColor=none;dashed=0;verticalLabelPosition=bottom;verticalAlign=top;align=center;html=1;fontSize=12;fontStyle=0;aspect=fixed;pointerEvents=1;shape=mxgraph.aws4.t2_instance;" vertex="1" parent="NtKVwXDE8uXWN5UhaUdf-69">
          <mxGeometry x="56.00000000000023" y="56" width="48" height="48" as="geometry" />
        </mxCell>
        <mxCell id="vOcuaTy3kgA0Dy2BZf0H-10" style="edgeStyle=orthogonalEdgeStyle;rounded=0;orthogonalLoop=1;jettySize=auto;html=1;" edge="1" parent="1" source="NtKVwXDE8uXWN5UhaUdf-70" target="vOcuaTy3kgA0Dy2BZf0H-7">
          <mxGeometry relative="1" as="geometry">
            <Array as="points">
              <mxPoint x="840" y="-320" />
            </Array>
          </mxGeometry>
        </mxCell>
        <mxCell id="NtKVwXDE8uXWN5UhaUdf-70" value="Public subnet" style="points=[[0,0],[0.25,0],[0.5,0],[0.75,0],[1,0],[1,0.25],[1,0.5],[1,0.75],[1,1],[0.75,1],[0.5,1],[0.25,1],[0,1],[0,0.75],[0,0.5],[0,0.25]];outlineConnect=0;gradientColor=none;html=1;whiteSpace=wrap;fontSize=12;fontStyle=0;container=1;pointerEvents=0;collapsible=0;recursiveResize=0;shape=mxgraph.aws4.group;grIcon=mxgraph.aws4.group_security_group;grStroke=0;strokeColor=#7AA116;fillColor=#F2F6E8;verticalAlign=top;align=left;spacingLeft=30;fontColor=#248814;dashed=0;" parent="1" vertex="1">
          <mxGeometry x="760" y="-240" width="160" height="160" as="geometry" />
        </mxCell>
        <mxCell id="vOcuaTy3kgA0Dy2BZf0H-6" value="" style="sketch=0;outlineConnect=0;fontColor=#232F3E;gradientColor=none;fillColor=#ED7100;strokeColor=none;dashed=0;verticalLabelPosition=bottom;verticalAlign=top;align=center;html=1;fontSize=12;fontStyle=0;aspect=fixed;pointerEvents=1;shape=mxgraph.aws4.t2_instance;" vertex="1" parent="NtKVwXDE8uXWN5UhaUdf-70">
          <mxGeometry x="56.00000000000023" y="56" width="48" height="48" as="geometry" />
        </mxCell>
        <mxCell id="vOcuaTy3kgA0Dy2BZf0H-17" style="edgeStyle=orthogonalEdgeStyle;rounded=0;orthogonalLoop=1;jettySize=auto;html=1;" edge="1" parent="1" source="NtKVwXDE8uXWN5UhaUdf-71" target="vOcuaTy3kgA0Dy2BZf0H-13">
          <mxGeometry relative="1" as="geometry">
            <Array as="points">
              <mxPoint x="440" y="20" />
            </Array>
          </mxGeometry>
        </mxCell>
        <mxCell id="NtKVwXDE8uXWN5UhaUdf-71" value="Private subnet" style="points=[[0,0],[0.25,0],[0.5,0],[0.75,0],[1,0],[1,0.25],[1,0.5],[1,0.75],[1,1],[0.75,1],[0.5,1],[0.25,1],[0,1],[0,0.75],[0,0.5],[0,0.25]];outlineConnect=0;gradientColor=none;html=1;whiteSpace=wrap;fontSize=12;fontStyle=0;container=1;pointerEvents=0;collapsible=0;recursiveResize=0;shape=mxgraph.aws4.group;grIcon=mxgraph.aws4.group_security_group;grStroke=0;strokeColor=#00A4A6;fillColor=#E6F6F7;verticalAlign=top;align=left;spacingLeft=30;fontColor=#147EBA;dashed=0;" parent="1" vertex="1">
          <mxGeometry x="360" y="70" width="160" height="160" as="geometry" />
        </mxCell>
        <mxCell id="NtKVwXDE8uXWN5UhaUdf-9" value="Amazon S3&lt;br&gt;Bucket&lt;br&gt;" style="outlineConnect=0;fontColor=#232F3E;gradientColor=none;fillColor=#277116;strokeColor=none;dashed=0;verticalLabelPosition=bottom;verticalAlign=top;align=center;html=1;fontSize=12;fontStyle=0;aspect=fixed;pointerEvents=1;shape=mxgraph.aws4.bucket;labelBackgroundColor=#ffffff;" parent="NtKVwXDE8uXWN5UhaUdf-71" vertex="1">
          <mxGeometry x="47.31" y="56" width="65.38" height="68" as="geometry" />
        </mxCell>
        <mxCell id="vOcuaTy3kgA0Dy2BZf0H-22" style="edgeStyle=orthogonalEdgeStyle;rounded=0;orthogonalLoop=1;jettySize=auto;html=1;" edge="1" parent="1" source="NtKVwXDE8uXWN5UhaUdf-72" target="vOcuaTy3kgA0Dy2BZf0H-13">
          <mxGeometry relative="1" as="geometry">
            <Array as="points">
              <mxPoint x="540" y="150" />
              <mxPoint x="540" y="50" />
              <mxPoint x="640" y="50" />
            </Array>
          </mxGeometry>
        </mxCell>
        <mxCell id="NtKVwXDE8uXWN5UhaUdf-72" value="Private subnet" style="points=[[0,0],[0.25,0],[0.5,0],[0.75,0],[1,0],[1,0.25],[1,0.5],[1,0.75],[1,1],[0.75,1],[0.5,1],[0.25,1],[0,1],[0,0.75],[0,0.5],[0,0.25]];outlineConnect=0;gradientColor=none;html=1;whiteSpace=wrap;fontSize=12;fontStyle=0;container=1;pointerEvents=0;collapsible=0;recursiveResize=0;shape=mxgraph.aws4.group;grIcon=mxgraph.aws4.group_security_group;grStroke=0;strokeColor=#00A4A6;fillColor=#E6F6F7;verticalAlign=top;align=left;spacingLeft=30;fontColor=#147EBA;dashed=0;" parent="1" vertex="1">
          <mxGeometry x="560" y="70" width="160" height="160" as="geometry" />
        </mxCell>
        <mxCell id="vOcuaTy3kgA0Dy2BZf0H-18" style="edgeStyle=orthogonalEdgeStyle;rounded=0;orthogonalLoop=1;jettySize=auto;html=1;" edge="1" parent="1" source="NtKVwXDE8uXWN5UhaUdf-73" target="vOcuaTy3kgA0Dy2BZf0H-13">
          <mxGeometry relative="1" as="geometry">
            <Array as="points">
              <mxPoint x="850" y="20" />
            </Array>
          </mxGeometry>
        </mxCell>
        <mxCell id="NtKVwXDE8uXWN5UhaUdf-73" value="Private subnet" style="points=[[0,0],[0.25,0],[0.5,0],[0.75,0],[1,0],[1,0.25],[1,0.5],[1,0.75],[1,1],[0.75,1],[0.5,1],[0.25,1],[0,1],[0,0.75],[0,0.5],[0,0.25]];outlineConnect=0;gradientColor=none;html=1;whiteSpace=wrap;fontSize=12;fontStyle=0;container=1;pointerEvents=0;collapsible=0;recursiveResize=0;shape=mxgraph.aws4.group;grIcon=mxgraph.aws4.group_security_group;grStroke=0;strokeColor=#00A4A6;fillColor=#E6F6F7;verticalAlign=top;align=left;spacingLeft=30;fontColor=#147EBA;dashed=0;" parent="1" vertex="1">
          <mxGeometry x="770" y="80" width="160" height="160" as="geometry" />
        </mxCell>
        <mxCell id="vOcuaTy3kgA0Dy2BZf0H-19" style="edgeStyle=orthogonalEdgeStyle;rounded=0;orthogonalLoop=1;jettySize=auto;html=1;" edge="1" parent="1" source="NtKVwXDE8uXWN5UhaUdf-74" target="vOcuaTy3kgA0Dy2BZf0H-13">
          <mxGeometry relative="1" as="geometry">
            <Array as="points">
              <mxPoint x="320" y="350" />
              <mxPoint x="320" y="30" />
            </Array>
          </mxGeometry>
        </mxCell>
        <mxCell id="NtKVwXDE8uXWN5UhaUdf-74" value="Private subnet" style="points=[[0,0],[0.25,0],[0.5,0],[0.75,0],[1,0],[1,0.25],[1,0.5],[1,0.75],[1,1],[0.75,1],[0.5,1],[0.25,1],[0,1],[0,0.75],[0,0.5],[0,0.25]];outlineConnect=0;gradientColor=none;html=1;whiteSpace=wrap;fontSize=12;fontStyle=0;container=1;pointerEvents=0;collapsible=0;recursiveResize=0;shape=mxgraph.aws4.group;grIcon=mxgraph.aws4.group_security_group;grStroke=0;strokeColor=#00A4A6;fillColor=#E6F6F7;verticalAlign=top;align=left;spacingLeft=30;fontColor=#147EBA;dashed=0;" parent="1" vertex="1">
          <mxGeometry x="360" y="270" width="160" height="160" as="geometry" />
        </mxCell>
        <mxCell id="vOcuaTy3kgA0Dy2BZf0H-21" style="edgeStyle=orthogonalEdgeStyle;rounded=0;orthogonalLoop=1;jettySize=auto;html=1;" edge="1" parent="1" source="NtKVwXDE8uXWN5UhaUdf-75" target="vOcuaTy3kgA0Dy2BZf0H-13">
          <mxGeometry relative="1" as="geometry">
            <Array as="points">
              <mxPoint x="740" y="350" />
              <mxPoint x="740" y="50" />
              <mxPoint x="640" y="50" />
            </Array>
          </mxGeometry>
        </mxCell>
        <mxCell id="NtKVwXDE8uXWN5UhaUdf-75" value="Private subnet" style="points=[[0,0],[0.25,0],[0.5,0],[0.75,0],[1,0],[1,0.25],[1,0.5],[1,0.75],[1,1],[0.75,1],[0.5,1],[0.25,1],[0,1],[0,0.75],[0,0.5],[0,0.25]];outlineConnect=0;gradientColor=none;html=1;whiteSpace=wrap;fontSize=12;fontStyle=0;container=1;pointerEvents=0;collapsible=0;recursiveResize=0;shape=mxgraph.aws4.group;grIcon=mxgraph.aws4.group_security_group;grStroke=0;strokeColor=#00A4A6;fillColor=#E6F6F7;verticalAlign=top;align=left;spacingLeft=30;fontColor=#147EBA;dashed=0;" parent="1" vertex="1">
          <mxGeometry x="560" y="270" width="160" height="160" as="geometry" />
        </mxCell>
        <mxCell id="NtKVwXDE8uXWN5UhaUdf-88" style="edgeStyle=orthogonalEdgeStyle;rounded=0;orthogonalLoop=1;jettySize=auto;html=1;entryX=0.5;entryY=0;entryDx=0;entryDy=0;entryPerimeter=0;" parent="1" source="NtKVwXDE8uXWN5UhaUdf-28" target="NtKVwXDE8uXWN5UhaUdf-43" edge="1">
          <mxGeometry relative="1" as="geometry" />
        </mxCell>
        <mxCell id="NtKVwXDE8uXWN5UhaUdf-93" style="edgeStyle=orthogonalEdgeStyle;rounded=0;orthogonalLoop=1;jettySize=auto;html=1;entryX=0.81;entryY=0.017;entryDx=0;entryDy=0;entryPerimeter=0;" parent="1" source="NtKVwXDE8uXWN5UhaUdf-43" target="NtKVwXDE8uXWN5UhaUdf-15" edge="1">
          <mxGeometry relative="1" as="geometry" />
        </mxCell>
        <mxCell id="NtKVwXDE8uXWN5UhaUdf-94" style="edgeStyle=orthogonalEdgeStyle;rounded=0;orthogonalLoop=1;jettySize=auto;html=1;entryX=0.997;entryY=0.129;entryDx=0;entryDy=0;entryPerimeter=0;" parent="1" source="NtKVwXDE8uXWN5UhaUdf-49" target="NtKVwXDE8uXWN5UhaUdf-29" edge="1">
          <mxGeometry relative="1" as="geometry">
            <Array as="points">
              <mxPoint x="615" y="-761" />
              <mxPoint x="615" y="-761" />
            </Array>
          </mxGeometry>
        </mxCell>
        <mxCell id="NtKVwXDE8uXWN5UhaUdf-53" value="" style="sketch=0;outlineConnect=0;fontColor=#232F3E;gradientColor=none;fillColor=#ED7100;strokeColor=none;dashed=0;verticalLabelPosition=bottom;verticalAlign=top;align=center;html=1;fontSize=12;fontStyle=0;aspect=fixed;pointerEvents=1;shape=mxgraph.aws4.t2_instance;" parent="1" vertex="1">
          <mxGeometry x="1516" y="-2.5" width="48" height="48" as="geometry" />
        </mxCell>
        <mxCell id="NtKVwXDE8uXWN5UhaUdf-54" value="" style="sketch=0;outlineConnect=0;fontColor=#232F3E;gradientColor=none;fillColor=#ED7100;strokeColor=none;dashed=0;verticalLabelPosition=bottom;verticalAlign=top;align=center;html=1;fontSize=12;fontStyle=0;aspect=fixed;pointerEvents=1;shape=mxgraph.aws4.t2_instance;" parent="1" vertex="1">
          <mxGeometry x="2234" y="-2.5" width="48" height="48" as="geometry" />
        </mxCell>
        <mxCell id="NtKVwXDE8uXWN5UhaUdf-52" value="" style="sketch=0;outlineConnect=0;fontColor=#232F3E;gradientColor=none;fillColor=#ED7100;strokeColor=none;dashed=0;verticalLabelPosition=bottom;verticalAlign=top;align=center;html=1;fontSize=12;fontStyle=0;aspect=fixed;pointerEvents=1;shape=mxgraph.aws4.t2_instance;" parent="1" vertex="1">
          <mxGeometry x="2959" y="-2.5" width="48" height="48" as="geometry" />
        </mxCell>
        <mxCell id="NtKVwXDE8uXWN5UhaUdf-115" style="edgeStyle=orthogonalEdgeStyle;rounded=0;orthogonalLoop=1;jettySize=auto;html=1;" parent="1" source="NtKVwXDE8uXWN5UhaUdf-97" target="NtKVwXDE8uXWN5UhaUdf-13" edge="1">
          <mxGeometry relative="1" as="geometry">
            <Array as="points">
              <mxPoint x="2258" y="-290" />
            </Array>
          </mxGeometry>
        </mxCell>
        <mxCell id="NtKVwXDE8uXWN5UhaUdf-97" value="Backend&amp;nbsp;subnet" style="sketch=0;outlineConnect=0;gradientColor=none;html=1;whiteSpace=wrap;fontSize=12;fontStyle=0;shape=mxgraph.aws4.group;grIcon=mxgraph.aws4.group_subnet;strokeColor=#00CC00;fillColor=none;verticalAlign=top;align=left;spacingLeft=30;fontColor=#879196;dashed=0;" parent="1" vertex="1">
          <mxGeometry x="2198" y="-40" width="120" height="120" as="geometry" />
        </mxCell>
        <mxCell id="NtKVwXDE8uXWN5UhaUdf-121" style="edgeStyle=orthogonalEdgeStyle;rounded=0;orthogonalLoop=1;jettySize=auto;html=1;" parent="1" source="NtKVwXDE8uXWN5UhaUdf-98" target="NtKVwXDE8uXWN5UhaUdf-118" edge="1">
          <mxGeometry relative="1" as="geometry">
            <Array as="points">
              <mxPoint x="2983" y="-280" />
            </Array>
          </mxGeometry>
        </mxCell>
        <mxCell id="NtKVwXDE8uXWN5UhaUdf-98" value="Database subnet" style="sketch=0;outlineConnect=0;gradientColor=none;html=1;whiteSpace=wrap;fontSize=12;fontStyle=0;shape=mxgraph.aws4.group;grIcon=mxgraph.aws4.group_subnet;strokeColor=#FF6666;fillColor=none;verticalAlign=top;align=left;spacingLeft=30;fontColor=#879196;dashed=0;" parent="1" vertex="1">
          <mxGeometry x="2923" y="-37" width="120" height="117" as="geometry" />
        </mxCell>
        <mxCell id="NtKVwXDE8uXWN5UhaUdf-100" value="Frontend subnet" style="sketch=0;outlineConnect=0;gradientColor=none;html=1;whiteSpace=wrap;fontSize=12;fontStyle=0;shape=mxgraph.aws4.group;grIcon=mxgraph.aws4.group_subnet;strokeColor=#3399FF;fillColor=none;verticalAlign=top;align=left;spacingLeft=30;fontColor=#879196;dashed=0;" parent="1" vertex="1">
          <mxGeometry x="230" y="-260" width="730" height="200" as="geometry" />
        </mxCell>
        <mxCell id="NtKVwXDE8uXWN5UhaUdf-114" style="edgeStyle=orthogonalEdgeStyle;rounded=0;orthogonalLoop=1;jettySize=auto;html=1;" parent="1" source="NtKVwXDE8uXWN5UhaUdf-101" target="NtKVwXDE8uXWN5UhaUdf-14" edge="1">
          <mxGeometry relative="1" as="geometry">
            <Array as="points">
              <mxPoint x="2020" y="-290" />
            </Array>
          </mxGeometry>
        </mxCell>
        <mxCell id="NtKVwXDE8uXWN5UhaUdf-101" value="Frontend subnet" style="sketch=0;outlineConnect=0;gradientColor=none;html=1;whiteSpace=wrap;fontSize=12;fontStyle=0;shape=mxgraph.aws4.group;grIcon=mxgraph.aws4.group_subnet;strokeColor=#3399FF;fillColor=none;verticalAlign=top;align=left;spacingLeft=30;fontColor=#879196;dashed=0;" parent="1" vertex="1">
          <mxGeometry x="1960" y="-40" width="120" height="120" as="geometry" />
        </mxCell>
        <mxCell id="NtKVwXDE8uXWN5UhaUdf-113" style="edgeStyle=orthogonalEdgeStyle;rounded=0;orthogonalLoop=1;jettySize=auto;html=1;" parent="1" source="NtKVwXDE8uXWN5UhaUdf-102" target="NtKVwXDE8uXWN5UhaUdf-14" edge="1">
          <mxGeometry relative="1" as="geometry" />
        </mxCell>
        <mxCell id="NtKVwXDE8uXWN5UhaUdf-102" value="Frontend subnet" style="sketch=0;outlineConnect=0;gradientColor=none;html=1;whiteSpace=wrap;fontSize=12;fontStyle=0;shape=mxgraph.aws4.group;grIcon=mxgraph.aws4.group_subnet;strokeColor=#3399FF;fillColor=none;verticalAlign=top;align=left;spacingLeft=30;fontColor=#879196;dashed=0;" parent="1" vertex="1">
          <mxGeometry x="1720" y="-40" width="120" height="120" as="geometry" />
        </mxCell>
        <mxCell id="NtKVwXDE8uXWN5UhaUdf-117" style="edgeStyle=orthogonalEdgeStyle;rounded=0;orthogonalLoop=1;jettySize=auto;html=1;" parent="1" source="NtKVwXDE8uXWN5UhaUdf-103" target="NtKVwXDE8uXWN5UhaUdf-13" edge="1">
          <mxGeometry relative="1" as="geometry">
            <Array as="points">
              <mxPoint x="2740" y="-290" />
            </Array>
          </mxGeometry>
        </mxCell>
        <mxCell id="NtKVwXDE8uXWN5UhaUdf-103" value="Backend&amp;nbsp;subnet" style="sketch=0;outlineConnect=0;gradientColor=none;html=1;whiteSpace=wrap;fontSize=12;fontStyle=0;shape=mxgraph.aws4.group;grIcon=mxgraph.aws4.group_subnet;strokeColor=#00CC00;fillColor=none;verticalAlign=top;align=left;spacingLeft=30;fontColor=#879196;dashed=0;" parent="1" vertex="1">
          <mxGeometry x="2680" y="-40" width="120" height="120" as="geometry" />
        </mxCell>
        <mxCell id="NtKVwXDE8uXWN5UhaUdf-116" style="edgeStyle=orthogonalEdgeStyle;rounded=0;orthogonalLoop=1;jettySize=auto;html=1;" parent="1" source="NtKVwXDE8uXWN5UhaUdf-104" target="NtKVwXDE8uXWN5UhaUdf-13" edge="1">
          <mxGeometry relative="1" as="geometry" />
        </mxCell>
        <mxCell id="NtKVwXDE8uXWN5UhaUdf-104" value="Backend&amp;nbsp;subnet" style="sketch=0;outlineConnect=0;gradientColor=none;html=1;whiteSpace=wrap;fontSize=12;fontStyle=0;shape=mxgraph.aws4.group;grIcon=mxgraph.aws4.group_subnet;strokeColor=#00CC00;fillColor=none;verticalAlign=top;align=left;spacingLeft=30;fontColor=#879196;dashed=0;" parent="1" vertex="1">
          <mxGeometry x="2440" y="-40" width="120" height="120" as="geometry" />
        </mxCell>
        <mxCell id="NtKVwXDE8uXWN5UhaUdf-122" style="edgeStyle=orthogonalEdgeStyle;rounded=0;orthogonalLoop=1;jettySize=auto;html=1;" parent="1" source="NtKVwXDE8uXWN5UhaUdf-105" target="NtKVwXDE8uXWN5UhaUdf-118" edge="1">
          <mxGeometry relative="1" as="geometry">
            <Array as="points">
              <mxPoint x="3460" y="-280" />
            </Array>
          </mxGeometry>
        </mxCell>
        <mxCell id="NtKVwXDE8uXWN5UhaUdf-105" value="Database subnet" style="sketch=0;outlineConnect=0;gradientColor=none;html=1;whiteSpace=wrap;fontSize=12;fontStyle=0;shape=mxgraph.aws4.group;grIcon=mxgraph.aws4.group_subnet;strokeColor=#FF6666;fillColor=none;verticalAlign=top;align=left;spacingLeft=30;fontColor=#879196;dashed=0;" parent="1" vertex="1">
          <mxGeometry x="3400" y="-37" width="120" height="117" as="geometry" />
        </mxCell>
        <mxCell id="NtKVwXDE8uXWN5UhaUdf-120" style="edgeStyle=orthogonalEdgeStyle;rounded=0;orthogonalLoop=1;jettySize=auto;html=1;" parent="1" source="NtKVwXDE8uXWN5UhaUdf-106" target="NtKVwXDE8uXWN5UhaUdf-118" edge="1">
          <mxGeometry relative="1" as="geometry">
            <Array as="points">
              <mxPoint x="3220" y="-190" />
              <mxPoint x="3220" y="-190" />
            </Array>
          </mxGeometry>
        </mxCell>
        <mxCell id="NtKVwXDE8uXWN5UhaUdf-106" value="Database subnet" style="sketch=0;outlineConnect=0;gradientColor=none;html=1;whiteSpace=wrap;fontSize=12;fontStyle=0;shape=mxgraph.aws4.group;grIcon=mxgraph.aws4.group_subnet;strokeColor=#FF6666;fillColor=none;verticalAlign=top;align=left;spacingLeft=30;fontColor=#879196;dashed=0;" parent="1" vertex="1">
          <mxGeometry x="3160" y="-37" width="120" height="117" as="geometry" />
        </mxCell>
        <mxCell id="NtKVwXDE8uXWN5UhaUdf-14" value="" style="sketch=0;outlineConnect=0;fontColor=#232F3E;gradientColor=none;fillColor=#8C4FFF;strokeColor=none;dashed=0;verticalLabelPosition=bottom;verticalAlign=top;align=center;html=1;fontSize=12;fontStyle=0;aspect=fixed;pointerEvents=1;shape=mxgraph.aws4.internet_gateway;" parent="1" vertex="1">
          <mxGeometry x="1741" y="-330" width="78" height="78" as="geometry" />
        </mxCell>
        <mxCell id="NtKVwXDE8uXWN5UhaUdf-118" value="" style="ellipse;whiteSpace=wrap;html=1;aspect=fixed;" parent="1" vertex="1">
          <mxGeometry x="3180" y="-320" width="80" height="80" as="geometry" />
        </mxCell>
        <mxCell id="vOcuaTy3kgA0Dy2BZf0H-14" style="edgeStyle=orthogonalEdgeStyle;rounded=0;orthogonalLoop=1;jettySize=auto;html=1;" edge="1" parent="1" source="vOcuaTy3kgA0Dy2BZf0H-13" target="NtKVwXDE8uXWN5UhaUdf-67">
          <mxGeometry relative="1" as="geometry" />
        </mxCell>
        <mxCell id="vOcuaTy3kgA0Dy2BZf0H-15" style="edgeStyle=orthogonalEdgeStyle;rounded=0;orthogonalLoop=1;jettySize=auto;html=1;" edge="1" parent="1" source="vOcuaTy3kgA0Dy2BZf0H-13" target="NtKVwXDE8uXWN5UhaUdf-69">
          <mxGeometry relative="1" as="geometry" />
        </mxCell>
        <mxCell id="vOcuaTy3kgA0Dy2BZf0H-16" style="edgeStyle=orthogonalEdgeStyle;rounded=0;orthogonalLoop=1;jettySize=auto;html=1;" edge="1" parent="1" source="vOcuaTy3kgA0Dy2BZf0H-13" target="NtKVwXDE8uXWN5UhaUdf-70">
          <mxGeometry relative="1" as="geometry" />
        </mxCell>
        <mxCell id="vOcuaTy3kgA0Dy2BZf0H-27" style="edgeStyle=orthogonalEdgeStyle;rounded=0;orthogonalLoop=1;jettySize=auto;html=1;" edge="1" parent="1" source="vOcuaTy3kgA0Dy2BZf0H-26" target="NtKVwXDE8uXWN5UhaUdf-14">
          <mxGeometry relative="1" as="geometry">
            <Array as="points">
              <mxPoint x="1540" y="-291" />
            </Array>
          </mxGeometry>
        </mxCell>
        <mxCell id="vOcuaTy3kgA0Dy2BZf0H-26" value="Frontend subnet" style="sketch=0;outlineConnect=0;gradientColor=none;html=1;whiteSpace=wrap;fontSize=12;fontStyle=0;shape=mxgraph.aws4.group;grIcon=mxgraph.aws4.group_subnet;strokeColor=#3399FF;fillColor=none;verticalAlign=top;align=left;spacingLeft=30;fontColor=#879196;dashed=0;" vertex="1" parent="1">
          <mxGeometry x="1480" y="-37" width="120" height="120" as="geometry" />
        </mxCell>
        <mxCell id="vOcuaTy3kgA0Dy2BZf0H-28" value="Backend&amp;nbsp;subnet" style="sketch=0;outlineConnect=0;gradientColor=none;html=1;whiteSpace=wrap;fontSize=12;fontStyle=0;shape=mxgraph.aws4.group;grIcon=mxgraph.aws4.group_subnet;strokeColor=#00CC00;fillColor=none;verticalAlign=top;align=left;spacingLeft=30;fontColor=#879196;dashed=0;" vertex="1" parent="1">
          <mxGeometry x="230" y="60" width="760" height="190" as="geometry" />
        </mxCell>
        <mxCell id="vOcuaTy3kgA0Dy2BZf0H-29" value="Database subnet" style="sketch=0;outlineConnect=0;gradientColor=none;html=1;whiteSpace=wrap;fontSize=12;fontStyle=0;shape=mxgraph.aws4.group;grIcon=mxgraph.aws4.group_subnet;strokeColor=#FF6666;fillColor=none;verticalAlign=top;align=left;spacingLeft=30;fontColor=#879196;dashed=0;" vertex="1" parent="1">
          <mxGeometry x="230" y="260" width="760" height="180" as="geometry" />
        </mxCell>
      </root>
    </mxGraphModel>
  </diagram>
</mxfile>
